<mxfile modified="2022-04-22T02:11:38.505Z" host="app.diagrams.net" agent="5.0 (Windows NT 10.0; Win64; x64) AppleWebKit/537.36 (KHTML, like Gecko) Chrome/100.0.4896.88 Safari/537.36" etag="BgfHTQebPEMWKn4-nSKE" version="17.4.5" type="github">
  <diagram id="6a731a19-8d31-9384-78a2-239565b7b9f0" name="Page-1">
    <mxGraphModel dx="1146" dy="552" grid="1" gridSize="10" guides="1" tooltips="1" connect="1" arrows="1" fold="1" page="1" pageScale="1" pageWidth="1169" pageHeight="827" background="#ffffff" math="0" shadow="0">
      <root>
        <mxCell id="0" />
        <mxCell id="1" parent="0" />
        <mxCell id="Je8vyvMtl6Uaa9TXR_3P-1" value="&lt;font style=&quot;font-size: 14px&quot;&gt;社員情報ファイル&lt;br&gt;（ｃｓｖ）&lt;/font&gt;&lt;br&gt;" style="strokeWidth=2;html=1;shape=mxgraph.flowchart.document2;whiteSpace=wrap;size=0.25;" parent="1" vertex="1">
          <mxGeometry x="224.5" y="253.5" width="136" height="80" as="geometry" />
        </mxCell>
        <mxCell id="Je8vyvMtl6Uaa9TXR_3P-4" value="&lt;font style=&quot;font-size: 14px&quot;&gt;社員性別人数算出バッチ&lt;/font&gt;" style="rounded=1;whiteSpace=wrap;html=1;strokeWidth=2;fillColor=#FFFFCC;fontColor=#001933;" parent="1" vertex="1">
          <mxGeometry x="451.5" y="258" width="170" height="57" as="geometry" />
        </mxCell>
        <mxCell id="Je8vyvMtl6Uaa9TXR_3P-5" value="&lt;font style=&quot;font-size: 14px&quot;&gt;結果ファイル&lt;br&gt;（ｃｓｖ）&lt;/font&gt;&lt;br&gt;" style="strokeWidth=2;html=1;shape=mxgraph.flowchart.document2;whiteSpace=wrap;size=0.25;" parent="1" vertex="1">
          <mxGeometry x="702.5" y="246.5" width="136" height="80" as="geometry" />
        </mxCell>
        <mxCell id="Je8vyvMtl6Uaa9TXR_3P-6" value="" style="edgeStyle=orthogonalEdgeStyle;elbow=vertical;exitX=0.993;exitY=0.413;fontColor=#001933;fontStyle=1;strokeColor=#003366;strokeWidth=1;html=1;exitDx=0;exitDy=0;exitPerimeter=0;" parent="1" source="Je8vyvMtl6Uaa9TXR_3P-1" target="Je8vyvMtl6Uaa9TXR_3P-4" edge="1">
          <mxGeometry x="168" y="-2034.5" width="100" height="100" as="geometry">
            <mxPoint x="298.5" y="143.5" as="sourcePoint" />
            <mxPoint x="103.27777777777783" y="184.5" as="targetPoint" />
          </mxGeometry>
        </mxCell>
        <mxCell id="Je8vyvMtl6Uaa9TXR_3P-7" value="" style="edgeStyle=orthogonalEdgeStyle;elbow=vertical;exitX=1;exitY=0.5;fontColor=#001933;fontStyle=1;strokeColor=#003366;strokeWidth=1;html=1;exitDx=0;exitDy=0;" parent="1" source="Je8vyvMtl6Uaa9TXR_3P-4" target="Je8vyvMtl6Uaa9TXR_3P-5" edge="1">
          <mxGeometry x="178" y="-2024.5" width="100" height="100" as="geometry">
            <mxPoint x="369.5" y="296.5" as="sourcePoint" />
            <mxPoint x="461.5" y="296.5" as="targetPoint" />
          </mxGeometry>
        </mxCell>
        <mxCell id="Je8vyvMtl6Uaa9TXR_3P-8" value="読込" style="text;html=1;strokeColor=none;fillColor=none;align=center;verticalAlign=middle;whiteSpace=wrap;rounded=0;fontColor=#001933;" parent="1" vertex="1">
          <mxGeometry x="384" y="264" width="40" height="20" as="geometry" />
        </mxCell>
        <mxCell id="Je8vyvMtl6Uaa9TXR_3P-10" value="書込" style="text;html=1;strokeColor=none;fillColor=none;align=center;verticalAlign=middle;whiteSpace=wrap;rounded=0;fontColor=#001933;" parent="1" vertex="1">
          <mxGeometry x="642" y="264" width="40" height="20" as="geometry" />
        </mxCell>
        <mxCell id="Je8vyvMtl6Uaa9TXR_3P-11" value="&lt;div style=&quot;text-align: left&quot;&gt;&lt;div&gt;&lt;font style=&quot;font-size: 18px&quot; face=&quot;Verdana&quot;&gt;社員番号,社員名,社員名カナ,生年月日,性別,所属部署,役職,入社年月日,電話番号,メールアドレス&lt;/font&gt;&lt;/div&gt;&lt;div&gt;&lt;font size=&quot;3&quot; face=&quot;Verdana&quot;&gt;100001,田中　太郎,タナカ　タロウ,1967/01/01,男性,情報システム開発部,部長,1990/04/01,09010000001,100001@example.co.jp&lt;/font&gt;&lt;/div&gt;&lt;div&gt;&lt;font size=&quot;3&quot; face=&quot;Verdana&quot;&gt;100002,鈴木　花子,スズキ　ハナコ,1960/12/29,女性,総務部,課長,1995/04/01,09010000002,100002@example.co.jp&lt;/font&gt;&lt;/div&gt;&lt;div&gt;&lt;font size=&quot;3&quot; face=&quot;Verdana&quot;&gt;100003,高橋　健司,タカハシ　ケンジ,1999/02/01,男性,総務部,部長,1990/04/01,09010000003,100003@example.co.jp&lt;/font&gt;&lt;/div&gt;&lt;div&gt;&lt;font size=&quot;3&quot; face=&quot;Verdana&quot;&gt;100004,佐藤　祥,サトウ　ショウ,2000/01/11,男性,情報システム開発部,一般,2019/04/01,09010000004,100004@example.co.jp&lt;/font&gt;&lt;/div&gt;&lt;div&gt;&lt;font size=&quot;3&quot; face=&quot;Verdana&quot;&gt;100005,山田　真奈美,ヤマダ　マナミ,1985/07/01,女性,営業部,一般,2019/04/01,09010000005,100005@example.co.jp&lt;/font&gt;&lt;/div&gt;&lt;/div&gt;" style="rounded=0;whiteSpace=wrap;html=1;fillColor=#FFFFFF;shadow=0;strokeColor=#CCCCCC;" parent="1" vertex="1">
          <mxGeometry x="30" y="56" width="1051" height="140" as="geometry" />
        </mxCell>
        <mxCell id="Je8vyvMtl6Uaa9TXR_3P-14" value="&lt;div style=&quot;text-align: left&quot;&gt;&lt;span style=&quot;font-size: 18px&quot;&gt;&lt;font face=&quot;Verdana&quot;&gt;男性,女性&lt;/font&gt;&lt;/span&gt;&lt;/div&gt;&lt;div style=&quot;text-align: left&quot;&gt;&lt;span style=&quot;font-size: 18px&quot;&gt;&lt;font face=&quot;Verdana&quot;&gt;3,2&lt;/font&gt;&lt;/span&gt;&lt;/div&gt;" style="rounded=0;whiteSpace=wrap;html=1;fillColor=#FFFFFF;shadow=0;strokeColor=#CCCCCC;" parent="1" vertex="1">
          <mxGeometry x="714.5" y="358.5" width="125" height="60" as="geometry" />
        </mxCell>
        <mxCell id="Je8vyvMtl6Uaa9TXR_3P-17" value="" style="endArrow=none;dashed=1;html=1;entryX=0.25;entryY=1;entryDx=0;entryDy=0;exitX=0.504;exitY=-0.019;exitDx=0;exitDy=0;exitPerimeter=0;" parent="1" source="Je8vyvMtl6Uaa9TXR_3P-1" target="Je8vyvMtl6Uaa9TXR_3P-11" edge="1">
          <mxGeometry width="50" height="50" relative="1" as="geometry">
            <mxPoint x="267.5" y="258" as="sourcePoint" />
            <mxPoint x="317.5" y="208" as="targetPoint" />
          </mxGeometry>
        </mxCell>
        <mxCell id="Je8vyvMtl6Uaa9TXR_3P-18" value="" style="endArrow=none;dashed=1;html=1;entryX=0.5;entryY=0;entryDx=0;entryDy=0;exitX=0.548;exitY=0.881;exitDx=0;exitDy=0;exitPerimeter=0;" parent="1" source="Je8vyvMtl6Uaa9TXR_3P-5" target="Je8vyvMtl6Uaa9TXR_3P-14" edge="1">
          <mxGeometry width="50" height="50" relative="1" as="geometry">
            <mxPoint x="303" y="262" as="sourcePoint" />
            <mxPoint x="424" y="206" as="targetPoint" />
          </mxGeometry>
        </mxCell>
        <mxCell id="Je8vyvMtl6Uaa9TXR_3P-20" value="&lt;div style=&quot;text-align: left&quot;&gt;&lt;br&gt;&lt;/div&gt;" style="rounded=0;whiteSpace=wrap;html=1;fillColor=#FFFFFF;shadow=0;strokeColor=#CCCCCC;" parent="1" vertex="1">
          <mxGeometry x="40" y="358.5" width="340" height="140" as="geometry" />
        </mxCell>
        <mxCell id="Je8vyvMtl6Uaa9TXR_3P-21" value="&lt;span style=&quot;font-size: 14px&quot;&gt;ファイル&lt;/span&gt;&lt;br&gt;" style="strokeWidth=2;html=1;shape=mxgraph.flowchart.document2;whiteSpace=wrap;size=0.25;" parent="1" vertex="1">
          <mxGeometry x="80" y="410.5" width="100" height="50" as="geometry" />
        </mxCell>
        <mxCell id="Je8vyvMtl6Uaa9TXR_3P-22" value="&lt;font style=&quot;font-size: 14px&quot;&gt;バッチプログラム&lt;/font&gt;" style="rounded=1;whiteSpace=wrap;html=1;strokeWidth=2;fillColor=#FFFFCC;fontColor=#001933;" parent="1" vertex="1">
          <mxGeometry x="210" y="410.5" width="130" height="38" as="geometry" />
        </mxCell>
        <mxCell id="Je8vyvMtl6Uaa9TXR_3P-25" value="&lt;font style=&quot;font-size: 18px&quot;&gt;凡例&lt;/font&gt;" style="text;html=1;strokeColor=none;fillColor=none;align=center;verticalAlign=middle;whiteSpace=wrap;rounded=0;shadow=0;" parent="1" vertex="1">
          <mxGeometry x="60" y="368.5" width="40" height="20" as="geometry" />
        </mxCell>
      </root>
    </mxGraphModel>
  </diagram>
</mxfile>
